/* XPM */
static char *c2cbcbdc18644b14f901555dbdcf7f76tAFz1WFZV3zWxGxK[] = {
/* columns rows colors chars-per-pixel */
"64 64 125 2 ",
"   c None",
".  c #939188",
"X  c #9A978F",
"o  c #9C998F",
"O  c #9D9A92",
"+  c #A19E96",
"@  c #A29F99",
"#  c #A2A096",
"$  c #A5A29A",
"%  c #A9A69F",
"&  c #ABA89F",
"*  c #AAA6A0",
"=  c #ADAAA2",
"-  c #B1AEA6",
";  c #B1AFA8",
":  c #B4B3AC",
">  c #B9B7AF",
",  c #B7B6B1",
"<  c #B9B7B0",
"1  c #BAB9B2",
"2  c #C0BDB7",
"3  c #C2BEB9",
"4  c #C4C1BB",
"5  c #C7C6C0",
"6  c #CDCBC6",
"7  c #CFCEC9",
"8  c #D0CFCA",
"9  c #D5D4CE",
"0  c #D7D6D1",
"q  c #D9D7D2",
"w  c #DAD9D3",
"e  c #DEDDD9",
"r  c #E0DFDA",
"t  c #DFE0D9",
"y  c #E1E0DB",
"u  c #E1E1DB",
"i  c #E2E1DA",
"p  c #E3E0DB",
"a  c #E2E1DB",
"s  c #E1E0DD",
"d  c #E3E0DC",
"f  c #E2E1DC",
"g  c #E3E1DC",
"h  c #E3E2DE",
"j  c #E4E3DF",
"k  c #E5E3DF",
"l  c #E5E5E2",
"z  c #E7E6E2",
"x  c #E8E7E4",
"c  c #E8E7E5",
"v  c #EAE8E5",
"b  c #E8E9E6",
"n  c #EAE9E6",
"m  c #EBE9E6",
"M  c #EBEAE7",
"N  c #ECEAE7",
"B  c #ECEBE7",
"V  c #EDECE7",
"C  c #EBEAE8",
"Z  c #EBEAE9",
"A  c #ECEAE8",
"S  c #ECEBE8",
"D  c #EDEBE8",
"F  c #EDEBE9",
"G  c #EDEBEB",
"H  c #EEEBEB",
"J  c #EDECE8",
"K  c #EDECE9",
"L  c #ECEDE9",
"P  c #EEEDE9",
"I  c #EDECEA",
"U  c #EDEDEA",
"Y  c #ECEDEB",
"T  c #EDEDEB",
"R  c #EEECEA",
"E  c #EEEDEA",
"W  c #EFEDEA",
"Q  c #EEECEB",
"!  c #EFECEB",
"~  c #EEEDEB",
"^  c #EEEEEB",
"/  c #EFEDEC",
"(  c #EDEEEC",
")  c #EFEEEC",
"_  c #F1EFED",
"`  c #F2EFEC",
"'  c #F0EFEE",
"]  c #F0EFEF",
"[  c #F0F0EC",
"{  c #F2F2EF",
"}  c #F4F2F2",
"|  c #F5F3F3",
" . c #F5F4F3",
".. c #F7F5F3",
"X. c #F6F6F3",
"o. c #F7F6F7",
"O. c #F7F8F5",
"+. c #F7F8F6",
"@. c #F8F8F5",
"#. c #F8F8F6",
"$. c #F9F8F6",
"%. c #F8F9F6",
"&. c #F9F9F6",
"*. c #F9F8F7",
"=. c #FAFAF9",
"-. c #FBFBF9",
";. c #FDFAF9",
":. c #FCFCFA",
">. c #FDFDFA",
",. c #FDFDFB",
"<. c gray99",
"1. c #FDFCFC",
"2. c #FDFDFC",
"3. c #FDFCFD",
"4. c #FDFDFD",
"5. c #FEFDFD",
"6. c #FDFEFD",
"7. c #FEFEFC",
"8. c #FEFEFD",
"9. c #FFFEFD",
"0. c #FDFDFE",
"q. c #FEFDFE",
"w. c #FEFEFE",
"e. c #FFFEFE",
"r. c white",
/* pixels */
"                                                        * # * ; 3 8 e Z  .} l e                                                 ",
"                                                        < + = 4 e ] ..*.o.c e                                                   ",
"                                                        1 + = 4 w / o.w.w.L i                                                   ",
"                                                        1 @ - 4 e ] ..-.-.B i                                                   ",
"                                                        1 # = 4 w Z { } { l r                                                   ",
"                                                      t O . # > 4 9 q e h l e q                                                 ",
"                                                        : X $ 1 6 e b _ | Z e                                                   ",
"                                                        1 $ = 4 w _ ;.w.w._ h                                                   ",
"                                                        > # = 4 w L *.w.w.L r                                                   ",
"                                                        > # = 4 w / +.;.w./ i                                                   ",
"                                                        > # = 4 w L *.,.w._ i                                                   ",
"                                                        1 # = 4 q L o.w.w._ r                                                   ",
"                                                        1 # = 4 w ` O.,.,.L h                                                   ",
"                                                        1 # = 4 q L *.,.w.L i                                                   ",
"                                                        1 # = 4 w ` *.,.w.L h                                                   ",
"                                                        1 # = 4 q L +.,.w.L i                                                   ",
"                                                        1 # = 4 q L +.,.w.L i                                                   ",
"                                                        1 # = 4 q L *.,.w.L h                                                   ",
"                                                        > # = 4 q ^ +.,.w.H i                                                   ",
"                                                        1 # & 4 q ^ o.w.w.L h                                                   ",
"                                                        > # = 4 q ^ %.,.q.H i                                                   ",
"                                                        > # & 4 q ^ *.,.w.L i                                                   ",
"                                                        > # = 4 q L +.,.w.H h                                                   ",
"                                                        > # & 4 q L +.w.w.` r                                                   ",
"                                                        > + = 4 q L +.,.w.L h                                                   ",
"                                                        > # = 4 q L *.w.w.L h                                                   ",
"                                                        > # = 4 q L *.w.w.` r                                                   ",
"                                                        > # = 4 q L *.w.q.L h                                                   ",
"                                                        > + = 4 q L +.,.q.L h                                                   ",
"                                                        , + - 4 q L *.w.q.H h                                                   ",
"                                                        , @ = 4 q L o.,.w.H i                                                   ",
"                                                        > + = 3 w L *.w.w.L h                                                   ",
"                                                        , @ = 4 q L +.w.w.L r                                                   ",
"                                                        > + = 4 q ` +.,.w.H r                                                   ",
"                                                        > O & 1 q L *.w.w.G r                                                   ",
"                                                        > + = 4 q H *.w.w.G r                                                   ",
"                                                        > O = 4 q L +.w.w.B r                                                   ",
"                                                        : # = 4 q L +.,.q.H r                                                   ",
"                                                        : O = 3 q L *.,.,.H r                                                   ",
"                                                        : O & 3 q L *.w.w.V e                                                   ",
"                                                        > O & 3 q L -.w.w.B r                                                   ",
"                                                        : O & 4 w L *.w.w.L e                                                   ",
"                                                        : O & 2 q L *.,.w.B r                                                   ",
"                                                        ; O & 4 q L o.w.w.H e                                                   ",
"                                                        : O % 3 q L *.,.w.B w                                                   ",
"                                                        : O % 3 w L o.w.w.B w                                                   ",
"                                                        : X * 3 q / *.w.w.B w                                                   ",
"                                                        : O % 3 q L *.w.w.B w                                                   ",
"                                                        ; O * 3 q L @.w.w.B w                                                   ",
"                                                        ; O * 3 q V @.w.;.` w                                                   ",
"                                                        ; O * 3 q L *.,.w.b q                                                   ",
"                                                        ; O * 3 q H ..w.q.B q                                                   ",
"                                                        ; O * 3 q H @.,.w.b q                                                   ",
"                                                        ; O * 3 q L *.w.,.b q                                                   ",
"                                                        = O % 3 q L @.,.;.H q                                                   ",
"                                                        ; X % 3 q V @.w.w.B q                                                   ",
"                                                        = X % 3 q L @.,.w.b q                                                   ",
"                                                        ; O % 1 q L @.w.w.B q                                                   ",
"                                                        = O * 3 q V *.w.;.B q                                                   ",
"                                                        - X * 3 q B @.,.w.b 9                                                   ",
"                                                        = X % 1 q V ..w.<.B 9                                                   ",
"                                                        % O % 3 q ` *.w.-.c 9                                                   ",
"                                                        & % - 2 6 q h c H L V e                                                 ",
"                                                        $ # % : 1 5 8 0 w e w                                                   "
};
